# xmcd CD database file
#
# Track frame offsets:
#	150
#	12077
#	34750
#	72437
#	80077
#	117457
#	145790
#	178717
#	207717
#
# Disc length: 3418 seconds
#
# Revision: 6
# Processed by: cddbd v1.5.2PL0 Copyright (c) Steve Scherf et al.
# Submitted via: CDex 1.51
#
DISCID=830d5809
DTITLE=Olivier Messiaen - Quatuor pour la fin du temps - Thème et variations  (Amici Ensemle)
DYEAR=1999
DGENRE=Musique Contemporaine
TTITLE0=Quatuor pour la fin du temps - I. Liturgie de cristal
TTITLE1=Quatuor pour la fin du temps - II. Vocalise, pour l' Ange qui annonce la fin du temps
TTITLE2=Quatuor pour la fin du temps - III. Abîme des oiseaux
TTITLE3=Quatuor pour la fin du temps - IV. Intermède
TTITLE4=Quatuor pour la fin du temps - V. Louange à l' Éternité de Jésus
TTITLE5=Quatuor pour la fin du temps - VI. Danse de la fureur, pour les sept trompettes
TTITLE6=Quatuor pour la fin du temps - VII. Fouillis d'arcs-en-ciel, pour l' Ange qui annonce la fin
TTITLE7=Quatuor pour la fin du temps - VIII. Louange à l'immortalité de Jésus
TTITLE8=Thème et variations  pour piano et violon
EXTD=Naxos 8.554824\n\nRecorded 15-16 December 1999 in River Run Centre, Guelph, Ontario, Canada\nProducers:  Bonnie Silver and Norbert Kraft - Engineer:  Norbert Kraft\n\n- - - - -\n\nAmici Ensemble:\n\n\tJoaquin Valdepeñas, clarinet\n\tDavid Hetheringto
EXTD=n, cello\n\tPatricia Parr, piano\n\tScott St. John, violin YEAR: 1999
EXTT0=
EXTT1=
EXTT2=
EXTT3=
EXTT4=
EXTT5=
EXTT6=
EXTT7=
EXTT8=
PLAYORDER=
